<?xml version="1.0" encoding="UTF-8" standalone="no"?><!DOCTYPE svg PUBLIC "-//W3C//DTD SVG 1.1//EN" "http://www.w3.org/Graphics/SVG/1.1/DTD/svg11.dtd"><svg width="100%" height="100%" viewBox="0 0 45 36" version="1.1" xmlns="http://www.w3.org/2000/svg" xmlns:xlink="http://www.w3.org/1999/xlink" xml:space="preserve" xmlns:serif="http://www.serif.com/" style="fill-rule:evenodd;clip-rule:evenodd;stroke-linejoin:round;stroke-miterlimit:2;"><rect id="closeX" x="-1.5" y="-6" width="48" height="48" style="fill:none;"/><g id="closeX1" serif:id="closeX"><path d="M18,36l-18,0l13.5,-18l-13.5,-18l18,0l4.5,7.5l4.5,-7.5l18,0l-13.5,18l13.5,18l-18,0l-4.5,-7.5l-4.5,7.5Zm4.5,-25.44l6,-7.935l11.25,0l-11.625,15.375l11.625,15.375l-11.25,0l-6,-7.935l-6,7.935l-11.25,0l11.625,-15.375l-11.625,-15.375l11.25,0l6,7.935Z" style="fill:#494949;"/><path d="M22.5,10.56l6,-7.935l11.25,0l-11.625,15.375l11.625,15.375l-11.25,0l-6,-7.935l-6,7.935l-11.25,0l11.625,-15.375l-11.625,-15.375l11.25,0l6,7.935Z" style="fill:url(#_Linear1);"/></g><defs><linearGradient id="_Linear1" x1="0" y1="0" x2="1" y2="0" gradientUnits="userSpaceOnUse" gradientTransform="matrix(0.137195,-14.9395,14.9395,0.137195,22.4543,25.5)"><stop offset="0" style="stop-color:#ccc;stop-opacity:1"/><stop offset="1" style="stop-color:#fff;stop-opacity:1"/></linearGradient></defs></svg>