<?xml version="1.0" encoding="UTF-8" standalone="no"?><!DOCTYPE svg PUBLIC "-//W3C//DTD SVG 1.1//EN" "http://www.w3.org/Graphics/SVG/1.1/DTD/svg11.dtd"><svg width="100%" height="100%" viewBox="0 0 27 35" version="1.1" xmlns="http://www.w3.org/2000/svg" xmlns:xlink="http://www.w3.org/1999/xlink" xml:space="preserve" xmlns:serif="http://www.serif.com/" style="fill-rule:evenodd;clip-rule:evenodd;stroke-linejoin:round;stroke-miterlimit:2;"><rect id="bin" x="-10.5" y="-6.75" width="48" height="48" style="fill:none;"/><rect x="0" y="2.25" width="27" height="3.75"/><path d="M18,0l-9,0l-1.5,3l12,0l-1.5,-3Z"/><path d="M0,8.25l27,-0l0,21l-5.197,5.25l-16.553,0l-5.25,-5.25l0,-21Zm7.5,4.5l-3,0l0,15l1.5,1.5l1.5,0l0,-16.5Zm7.5,0l-3,0l0,16.5l3,0l0,-16.5Zm7.5,0l-3,0l0,16.5l1.5,0l1.5,-1.5l0,-15Z"/></svg>